<svg xmlns="http://www.w3.org/2000/svg" width="30" height="35" fill="none"><path fill="#021F3E" d="M8.571 0a2.14 2.14 0 0 1 2.143 2.143v2.143h8.572V2.143A2.14 2.14 0 0 1 21.429 0a2.14 2.14 0 0 1 2.142 2.143v2.143h3.215A3.215 3.215 0 0 1 30 7.5v3.214H0V7.5a3.215 3.215 0 0 1 3.214-3.214H6.43V2.143A2.14 2.14 0 0 1 8.57 0ZM0 12.857h30v18.214a3.215 3.215 0 0 1-3.214 3.215H3.214A3.215 3.215 0 0 1 0 31.07V12.857Zm4.286 5.357v2.143c0 .59.482 1.072 1.071 1.072H7.5c.59 0 1.071-.483 1.071-1.072v-2.143c0-.589-.482-1.071-1.071-1.071H5.357c-.59 0-1.071.482-1.071 1.071Zm8.571 0v2.143c0 .59.482 1.072 1.072 1.072h2.142c.59 0 1.072-.483 1.072-1.072v-2.143c0-.589-.482-1.071-1.072-1.071H13.93c-.59 0-1.072.482-1.072 1.071Zm9.643-1.071c-.59 0-1.071.482-1.071 1.071v2.143c0 .59.482 1.072 1.071 1.072h2.143c.59 0 1.071-.483 1.071-1.072v-2.143c0-.589-.482-1.071-1.071-1.071H22.5ZM4.286 26.786v2.143c0 .589.482 1.071 1.071 1.071H7.5c.59 0 1.071-.482 1.071-1.071v-2.143c0-.59-.482-1.072-1.071-1.072H5.357c-.59 0-1.071.482-1.071 1.072Zm9.643-1.072c-.59 0-1.072.482-1.072 1.072v2.143c0 .589.482 1.071 1.072 1.071h2.142c.59 0 1.072-.482 1.072-1.071v-2.143c0-.59-.482-1.072-1.072-1.072H13.93Zm7.5 1.072v2.143c0 .589.482 1.071 1.071 1.071h2.143c.59 0 1.071-.482 1.071-1.071v-2.143c0-.59-.482-1.072-1.071-1.072H22.5c-.59 0-1.071.482-1.071 1.072Z"/></svg>