<svg xmlns="http://www.w3.org/2000/svg" width="481" height="437" fill="none"><g clip-path="url(#a)"><path fill="#F2F2F2" d="M114.299 173.787a112.83 112.83 0 0 1 3.005 2.141 263.214 263.214 0 0 1 14.398 86.332c.003 3.398-.07 6.787-.222 10.168a255.541 255.541 0 0 1-15.683 78.101c-.331.896-.667 1.8-1.028 2.688l-1.071 1.324c-.025.019-.047.052-.072.071-.143.177-.286.354-.416.528-.614.752-1.237 1.499-1.851 2.251l.486.055 1.219.133-.006.008a37.4 37.4 0 0 1-1.24-.1c-.15-.007-.314-.01-.467-.031-.137-.008-.282-.023-.418-.032-17.595-1.281-35.583-2.983-51.286-10.93-16.436-8.325-29.927-25.319-28.368-43.697a33.148 33.148 0 0 1 1.413-7.086c.304-.962.654-1.904 1.026-2.844a34.82 34.82 0 0 1 10.88-14.618 34.713 34.713 0 0 1 34.81-4.757 34.77 34.77 0 0 1 14.39 11.165c-3.95-19.151-24.155-29.752-42.481-36.473-18.34-6.718-38.996-13.812-47.728-31.303-4.876-9.734-4.502-20.799-.575-30.854.12-.301.244-.609.377-.913a50.778 50.778 0 0 1 25.7-26.678c21.741-9.578 47.41-4.68 68.77 5.726a125.74 125.74 0 0 1 16.438 9.625Z"/><path fill="#fff" d="M47.79 293.586a78.222 78.222 0 0 1 44.102 21.689 80.267 80.267 0 0 1 21.129 36.795c.211.798.4 1.593.576 2.391.459-.786.906-1.59 1.349-2.388.284-.51.574-1.028.851-1.544-.331.896-.667 1.8-1.028 2.688l-1.071 1.324c-.025.019-.047.052-.072.071-.143.177-.286.354-.416.528-.614.752-1.237 1.499-1.851 2.251l.486.055 1.219.134-.006.008c-.41-.028-.828-.06-1.24-.101-.15-.006-.314-.01-.467-.031-.04-.241-.093-.479-.146-.718a75.789 75.789 0 0 0-27.848-45.244 75.537 75.537 0 0 0-50.665-15.783c.304-.962.654-1.904 1.026-2.844 4.703-.171 9.411.07 14.072.719ZM106.499 226.091a86.16 86.16 0 0 1 16.813 18.576 71.575 71.575 0 0 1 6.212 11.758 72.91 72.91 0 0 1 2.178 5.835c.003 3.398-.07 6.787-.221 10.168a74.053 74.053 0 0 0-1.927-7.654 66.09 66.09 0 0 0-1.341-4.077c-5.459-15.026-16.033-27.175-28.726-36.624-13.602-10.111-29.098-17.942-44.89-23.96a211.695 211.695 0 0 0-50.259-12.452 1.52 1.52 0 0 1-1.324-1.634c.003-.342.138-.67.378-.913a1.087 1.087 0 0 1 .944-.254c2.123.257 4.239.522 6.353.844a214.186 214.186 0 0 1 51.188 14.32c15.837 6.62 31.428 14.98 44.622 26.067Z"/><path fill="#F2F2F2" d="M22.906 140.551a5.918 5.918 0 0 1-5.912-5.924 5.918 5.918 0 0 1 5.912-5.923 5.918 5.918 0 0 1 5.913 5.923 5.918 5.918 0 0 1-5.913 5.924Z"/><path fill="#3F3D56" d="M138.61 435.718h145.782a32.969 32.969 0 0 0 23.299-9.683 33.093 33.093 0 0 0 9.666-23.341V33.024a33.093 33.093 0 0 0-9.666-23.34A32.972 32.972 0 0 0 284.392 0H138.61a32.972 32.972 0 0 0-23.299 9.684 33.093 33.093 0 0 0-9.666 23.34v369.67a33.093 33.093 0 0 0 9.666 23.341 32.969 32.969 0 0 0 23.299 9.683Z"/><path fill="#fff" d="M140.241 10.252h16.227a5.462 5.462 0 0 1 3.861 1.604 5.486 5.486 0 0 1 1.602 3.868 11.208 11.208 0 0 0 3.274 7.908 11.165 11.165 0 0 0 7.893 3.28h79.364a11.165 11.165 0 0 0 7.893-3.28 11.204 11.204 0 0 0 3.274-7.908 5.486 5.486 0 0 1 1.602-3.867 5.462 5.462 0 0 1 3.861-1.605H283.4a25.012 25.012 0 0 1 17.67 7.346 25.1 25.1 0 0 1 7.332 17.702V402.34a25.099 25.099 0 0 1-7.332 17.702 25.017 25.017 0 0 1-17.67 7.346H140.241a25.017 25.017 0 0 1-17.67-7.346 25.099 25.099 0 0 1-7.332-17.702V35.3a25.1 25.1 0 0 1 7.332-17.702 25.012 25.012 0 0 1 17.67-7.346Z"/><path fill="#fff" d="M192.792 17.621h44.773a1.599 1.599 0 0 0 1.599-1.602 1.602 1.602 0 0 0-1.599-1.602h-44.773a1.598 1.598 0 0 0-1.599 1.602 1.603 1.603 0 0 0 1.599 1.602ZM185.756 17.3a1.28 1.28 0 1 1 .003-2.56 1.28 1.28 0 0 1-.003 2.56Z"/><path fill="#3F3D56" d="M104.365 145.773c.763 0 1.495-.304 2.035-.845a2.892 2.892 0 0 0 .844-2.038V86.503a2.877 2.877 0 1 0-5.757 0v56.387c.001.765.305 1.497.844 2.038.54.541 1.271.845 2.034.845ZM317.357 104.124a2.882 2.882 0 0 0 2.878-2.884V88.425c0-.764-.303-1.498-.843-2.039a2.875 2.875 0 0 0-4.07 0 2.885 2.885 0 0 0-.843 2.04v12.814a2.886 2.886 0 0 0 2.878 2.884ZM317.357 127.832a2.88 2.88 0 0 0 2.878-2.883v-12.816a2.883 2.883 0 0 0-2.878-2.883 2.883 2.883 0 0 0-2.878 2.883v12.816a2.88 2.88 0 0 0 2.878 2.883ZM53.738 437H480.36a.641.641 0 0 0 0-1.282H53.738a.64.64 0 0 0 0 1.282Z"/><path fill="#FFB6B6" d="M440.929 429.246h-7.842l-3.73-30.3h11.573l-.001 30.3Z"/><path fill="#2F2E41" d="M442.929 426.681h-15.443a9.834 9.834 0 0 0-6.959 2.888 9.864 9.864 0 0 0-2.883 6.971v.32l25.285.001v-10.18Z"/><path fill="#FFB6B6" d="M368.653 429.246h-7.842l-3.73-30.3h11.573l-.001 30.3Z"/><path fill="#2F2E41" d="M370.653 426.681H355.209a9.83 9.83 0 0 0-6.958 2.888 9.864 9.864 0 0 0-2.883 6.971v.32l25.284.001.001-10.18Z"/><path fill="#FFB6B6" d="m378.121 185.821-5.117 32.679 48.61.641-6.396-31.398-37.097-1.922Z"/><path fill="#2F2E41" d="m371.084 210.17-12.152 41.65-1.919 171.149h13.112l31.341-137.509 28.783 133.919h12.792L434.086 268.8s4.478-37.164-10.873-48.057v-9.559l-52.129-1.014Z"/><path fill="#FFB6B6" d="M440.825 242.715a9.596 9.596 0 0 1-6.195-5.258 9.633 9.633 0 0 1 .047-8.134l-20.68-67.542 15.211-3.02 18.913 66.205a9.661 9.661 0 0 1 4.41 5.257 9.677 9.677 0 0 1-4.88 11.871 9.632 9.632 0 0 1-6.826.621ZM383.128 118.425c-8.568-8.583-8.568-22.5 0-31.082 8.567-8.583 22.458-8.583 31.026 0 8.568 8.583 8.568 22.499 0 31.082-8.568 8.583-22.459 8.583-31.026 0Z"/><path fill="#E4E4E4" d="M414.328 203.442a4.02 4.02 0 0 0 3.22-3.649c.482-6.618 2.868-18.119 7.092-34.186a26.688 26.688 0 0 0-3.563-21.49 26.597 26.597 0 0 0-7.949-7.787 26.563 26.563 0 0 0-10.434-3.85 26.537 26.537 0 0 0-20.012 5.25 26.602 26.602 0 0 0-6.919 7.984 26.65 26.65 0 0 0-3.271 10.052c-2.09 18.436 1.852 36.956 3.644 44.063a4.035 4.035 0 0 0 3.819 3.041l33.509.648c.29.006.579-.02.864-.076Z"/><path fill="#FFB6B6" d="M319.934 144.541c.201.452.366.919.494 1.398l41.943 14.278 8.105-7.093 12.284 10.854-13.13 13.954a7.138 7.138 0 0 1-8.45 1.464l-44.882-22.966a9.363 9.363 0 0 1-10.643-.58 9.394 9.394 0 0 1-3.197-4.586 9.4 9.4 0 0 1 3.122-10.21 9.36 9.36 0 0 1 10.637-.687 9.39 9.39 0 0 1 3.717 4.174Z"/><path fill="#E4E4E4" d="m363.834 160.997 15.29 13.379a4.006 4.006 0 0 0 3.209.954 3.999 3.999 0 0 0 1.605-.598c.487-.312.9-.726 1.212-1.213l10.937-17.061a11.2 11.2 0 0 0-1.131-15.753 11.152 11.152 0 0 0-15.728 1.089L363.87 154.9a4.031 4.031 0 0 0-.036 6.097ZM416.412 179.075l18.896-7.437a4.011 4.011 0 0 0 2.323-2.414 4.038 4.038 0 0 0-.308-3.339l-10.081-17.582a11.175 11.175 0 0 0-5.95-6.125 11.146 11.146 0 0 0-8.531-.127 11.17 11.17 0 0 0-6.128 5.946 11.197 11.197 0 0 0-.147 8.546l4.54 19.692a4.021 4.021 0 0 0 5.386 2.84Z"/><path fill="#2F2E41" d="M388.497 97.96c-4.781 4.891-11.272 10.232-17.72 7.315-4.235-1.915-6.375-6.593-5.723-11.201 1.171-8.287 7.928-13.174 14.518-17.201 8.566-5.234 18.09-9.937 28.11-9.396 10.019.54 20.279 8.118 20.478 18.168.16 8.082-5.905 16.038-3.306 23.69 2.615 7.702 12.319 10.103 20.439 9.96 8.12-.143 16.983-1.431 23.733 3.091 8.612 5.77 9.362 18.989 4.102 27.93-5.259 8.942-14.784 14.413-24.21 18.718-12.489 5.704-26.338 10.149-39.802 7.472-13.463-2.678-25.89-14.613-24.856-28.325.437-5.792 3.106-11.143 5.679-16.348 2.573-5.205 5.149-10.625 5.375-16.429.188-4.836-1.689-10.036-5.431-12.893a3.967 3.967 0 0 1-1.421-4.449l.035-.101Z"/><path fill="#fff" d="M120.161 192.154c6.919 4.157 19.247 9.366 31.845 4.013l8.143-3.46-16.319-18.326a78.152 78.152 0 0 0 20.207-52.532 78.154 78.154 0 0 0-20.314-52.49A77.884 77.884 0 0 0 93.45 44.2a77.836 77.836 0 0 0-54.094 15.254 78.094 78.094 0 0 0-29.79 47.736 78.196 78.196 0 0 0 10 55.399 77.95 77.95 0 0 0 44.594 34.258 77.805 77.805 0 0 0 56.001-4.693Z"/><path fill="#C77935" d="M120.119 193.142c6.648 3.911 19.314 9.315 32.226 3.827l9.261-3.935-16.608-18.651a79.013 79.013 0 0 0 19.15-41.523 79.068 79.068 0 0 0-7.049-45.193 78.886 78.886 0 0 0-30.882-33.692 78.693 78.693 0 0 0-87.276 4.702 78.938 78.938 0 0 0-27.097 36.815 79.082 79.082 0 0 0-2.17 45.689 78.976 78.976 0 0 0 23.484 39.227 78.4 78.4 0 0 0 41.533 19.71 78.334 78.334 0 0 0 45.428-6.976ZM29.015 70.062a77.077 77.077 0 0 1 24.158-17.953 76.956 76.956 0 0 1 58.931-2.894 77.04 77.04 0 0 1 25.795 15.498 77.208 77.208 0 0 1 17.909 24.21 77.322 77.322 0 0 1 2.861 59.038 77.22 77.22 0 0 1-15.483 25.834l-.526.581 16.032 18.004-7.026 2.985c-12.471 5.3-24.811-.205-31.058-3.958l-.403-.243-.424.206a76.938 76.938 0 0 1-51.823 5.594 77.057 77.057 0 0 1-43.524-28.729 77.301 77.301 0 0 1-15.316-49.911 77.278 77.278 0 0 1 19.897-48.262Z"/><path fill="#000" d="M20.305 121.442A71.925 71.925 0 0 1 39.12 72.935a71.677 71.677 0 0 1 46.568-23.06 72.485 72.485 0 0 0-6.34-.283 71.656 71.656 0 0 0-50.69 21.058 71.916 71.916 0 0 0-20.993 50.792 71.915 71.915 0 0 0 20.993 50.792 71.655 71.655 0 0 0 50.69 21.058c2.134 0 4.243-.101 6.33-.284a71.678 71.678 0 0 1-46.562-23.063 71.925 71.925 0 0 1-18.81-48.503Z" opacity=".1"/><path fill="#C77935" d="M75.98 107.114h51.249v4.768h-51.25v-4.768ZM37.906 123.607h89.323v4.768H37.906v-4.768ZM37.994 140.1h89.235v4.768H37.994V140.1Z"/><path fill="#fff" d="M281.637 313.664a49.828 49.828 0 0 0 14.829-24.805 49.877 49.877 0 0 0-1.426-28.877 49.794 49.794 0 0 0-17.2-23.218 49.646 49.646 0 0 0-55.171-2.697 49.78 49.78 0 0 0-19.375 21.43 49.877 49.877 0 0 0 8.123 54.734l-10.409 11.689 5.195 2.208c8.035 3.414 15.898.092 20.312-2.56a49.627 49.627 0 0 0 28.769 4.505 49.682 49.682 0 0 0 26.353-12.409Z"/><path fill="#C77935" d="M248.304 327.175a50.029 50.029 0 0 0 33.705-13.1 50.365 50.365 0 0 0 14.98-25.02 50.446 50.446 0 0 0-1.385-29.143 50.352 50.352 0 0 0-17.284-23.482 50.199 50.199 0 0 0-55.669-2.999 50.322 50.322 0 0 0-19.697 21.49 50.427 50.427 0 0 0 7.719 55.311l-10.594 11.897 5.907 2.51c8.236 3.5 16.315.053 20.556-2.441a50.267 50.267 0 0 0 21.762 4.977Zm32.96-13.923a48.901 48.901 0 0 1-26.052 12.317 48.853 48.853 0 0 1-28.455-4.501l-.27-.132-.258.155c-3.984 2.394-11.855 5.905-19.81 2.525l-4.481-1.904 10.225-11.484-.335-.37a49.284 49.284 0 0 1-12.21-25.841 49.324 49.324 0 0 1 4.178-28.283 49.215 49.215 0 0 1 19.158-21.19 49.088 49.088 0 0 1 54.556 2.667 49.24 49.24 0 0 1 17.008 22.958 49.334 49.334 0 0 1 1.41 28.555 49.271 49.271 0 0 1-14.664 24.528Z"/><path fill="#000" d="M290.207 276.464a45.882 45.882 0 0 0-12-30.94 45.726 45.726 0 0 0-29.704-14.709 46.225 46.225 0 0 1 4.044-.18 45.704 45.704 0 0 1 32.332 13.432 45.871 45.871 0 0 1 13.391 32.397 45.872 45.872 0 0 1-13.391 32.398 45.703 45.703 0 0 1-32.332 13.431 46.44 46.44 0 0 1-4.037-.18 45.728 45.728 0 0 0 29.699-14.711 45.882 45.882 0 0 0 11.998-30.938Z" opacity=".1"/><path fill="#C77935" d="M222.007 267.325h32.689v3.041h-32.689v-3.041ZM222.007 277.845h56.973v3.041h-56.973v-3.041ZM222.007 288.365h56.918v3.041h-56.918v-3.041ZM184.632 333.282c-3.886 0-7.036-3.155-7.036-7.048 0-3.893 3.15-7.048 7.036-7.048 3.886 0 7.036 3.155 7.036 7.048 0 3.893-3.15 7.048-7.036 7.048ZM174.398 203.208c-4.592 0-8.315-3.73-8.315-8.33 0-4.601 3.723-8.33 8.315-8.33s8.315 3.729 8.315 8.33c0 4.6-3.723 8.33-8.315 8.33Z"/></g><defs><clipPath id="a"><path fill="#fff" d="M481 0H0v437h481z"/></clipPath></defs></svg>