<svg width="481" height="437" viewBox="0 0 481 437" fill="none" xmlns="http://www.w3.org/2000/svg">
<g clip-path="url(#clip0_76_440)">
<path d="M114.299 173.787C115.315 174.486 116.311 175.196 117.304 175.928C126.887 203.696 131.754 232.878 131.702 262.26C131.705 265.658 131.632 269.047 131.48 272.428C130.423 297.783 125.595 322.839 117.157 346.767C116.712 348.026 116.258 349.28 115.797 350.529C115.466 351.425 115.13 352.329 114.769 353.217C114.408 353.664 114.053 354.103 113.698 354.541C113.673 354.56 113.651 354.593 113.626 354.612C113.483 354.789 113.34 354.966 113.21 355.14C112.596 355.892 111.973 356.639 111.359 357.391L111.845 357.446L113.064 357.579L113.058 357.587C112.648 357.56 112.23 357.528 111.818 357.487C111.668 357.48 111.504 357.477 111.351 357.456C111.214 357.448 111.069 357.433 110.933 357.424C93.338 356.143 75.3497 354.441 59.6466 346.494C43.2108 338.169 29.7197 321.175 31.2788 302.797C31.4901 300.391 31.964 298.015 32.6919 295.711C32.9957 294.749 33.346 293.807 33.7181 292.867C35.9843 287.113 39.7394 282.067 44.5973 278.249C49.4551 274.431 55.2404 271.977 61.3584 271.141C67.4764 270.305 73.7063 271.117 79.4075 273.492C85.1088 275.867 90.0756 279.721 93.7975 284.657C89.8483 265.506 69.6434 254.905 51.3169 248.184C32.9767 241.466 12.3211 234.372 3.58942 216.881C-1.28705 207.147 -0.912796 196.082 3.01402 186.027C3.13329 185.726 3.25827 185.418 3.39133 185.114C8.29848 173.297 17.4761 163.769 29.0903 158.436C50.8324 148.858 76.5009 153.756 97.8604 164.162C103.575 166.95 109.07 170.167 114.299 173.787Z" fill="#F2F2F2"/>
<path d="M47.7903 293.586C64.4334 295.887 79.896 303.491 91.8924 315.275C102.105 325.417 109.403 338.127 113.021 352.07C113.232 352.868 113.421 353.663 113.597 354.461C114.056 353.675 114.503 352.871 114.946 352.073C115.23 351.563 115.52 351.045 115.797 350.529C115.466 351.425 115.13 352.329 114.769 353.217C114.408 353.664 114.053 354.103 113.698 354.541C113.673 354.56 113.651 354.593 113.626 354.612C113.483 354.789 113.34 354.966 113.21 355.14C112.596 355.892 111.973 356.639 111.359 357.391L111.845 357.446L113.064 357.58L113.058 357.588C112.648 357.56 112.23 357.528 111.818 357.487C111.668 357.481 111.504 357.477 111.351 357.456C111.311 357.215 111.258 356.977 111.205 356.738C107.681 338.783 97.7892 322.712 83.3574 311.494C68.9255 300.276 50.9288 294.67 32.6919 295.711C32.9958 294.749 33.3461 293.807 33.7181 292.867C38.4208 292.696 43.1294 292.937 47.7903 293.586Z" fill="white"/>
<path d="M106.499 226.091C112.977 231.429 118.641 237.687 123.312 244.667C125.743 248.384 127.822 252.321 129.524 256.425C130.332 258.33 131.058 260.287 131.702 262.26C131.705 265.658 131.632 269.047 131.481 272.428C130.975 269.844 130.332 267.289 129.554 264.774C129.153 263.394 128.699 262.038 128.213 260.697C122.754 245.671 112.18 233.522 99.4871 224.073C85.8855 213.962 70.3894 206.131 54.5979 200.113C38.4154 193.921 21.5363 189.739 4.338 187.661C3.94971 187.612 3.5954 187.414 3.34883 187.11C3.10225 186.805 2.98244 186.417 3.0143 186.027C3.01654 185.685 3.15192 185.357 3.39162 185.114C3.51825 185.001 3.66968 184.919 3.83372 184.875C3.99778 184.83 4.16987 184.825 4.3362 184.86C6.45852 185.117 8.57491 185.382 10.6886 185.704C28.2781 188.333 45.473 193.143 61.8773 200.024C77.7141 206.644 93.3055 215.004 106.499 226.091Z" fill="white"/>
<path d="M22.9064 140.551C19.6408 140.551 16.9935 137.899 16.9935 134.627C16.9935 131.356 19.6408 128.704 22.9064 128.704C26.172 128.704 28.8193 131.356 28.8193 134.627C28.8193 137.899 26.172 140.551 22.9064 140.551Z" fill="#F2F2F2"/>
<path d="M138.61 435.718H284.392C293.132 435.709 301.511 432.226 307.691 426.035C313.871 419.844 317.347 411.449 317.357 402.694V33.0246C317.347 24.269 313.871 15.8748 307.691 9.68365C301.511 3.49248 293.132 0.00991958 284.392 0H138.61C129.87 0.00991789 121.491 3.49248 115.311 9.68365C109.131 15.8748 105.655 24.269 105.645 33.0246V402.694C105.655 411.449 109.131 419.844 115.311 426.035C121.491 432.226 129.87 435.709 138.61 435.718Z" fill="#3F3D56"/>
<path d="M140.241 10.2522H156.468C157.917 10.2536 159.305 10.8306 160.329 11.8565C161.353 12.8824 161.929 14.2734 161.931 15.7243C161.934 18.6906 163.111 21.5346 165.205 23.6321C167.298 25.7296 170.137 26.9092 173.098 26.912H252.462C255.423 26.9092 258.262 25.7296 260.355 23.6321C262.449 21.5346 263.627 18.6906 263.629 15.7243C263.631 14.2734 264.207 12.8824 265.231 11.8565C266.255 10.8306 267.643 10.2536 269.092 10.2522H283.4C290.028 10.2607 296.383 12.9023 301.07 17.5978C305.757 22.2932 308.394 28.6592 308.402 35.2996V402.341C308.394 408.982 305.757 415.348 301.07 420.043C296.383 424.738 290.028 427.38 283.4 427.389H140.241C133.613 427.38 127.258 424.738 122.571 420.043C117.884 415.348 115.247 408.982 115.239 402.341V35.2996C115.247 28.6592 117.884 22.2932 122.571 17.5978C127.258 12.9023 133.613 10.2607 140.241 10.2522Z" fill="white"/>
<path d="M192.792 17.621H237.565C237.989 17.621 238.396 17.4522 238.696 17.1518C238.996 16.8514 239.164 16.4439 239.164 16.0191C239.164 15.5942 238.996 15.1868 238.696 14.8864C238.396 14.5859 237.989 14.4172 237.565 14.4172H192.792C192.368 14.4172 191.961 14.5859 191.661 14.8864C191.361 15.1868 191.193 15.5942 191.193 16.0191C191.193 16.4439 191.361 16.8514 191.661 17.1518C191.961 17.4522 192.368 17.621 192.792 17.621Z" fill="white"/>
<path d="M185.756 17.3006C185.05 17.3006 184.477 16.7268 184.477 16.0191C184.477 15.3113 185.05 14.7375 185.756 14.7375C186.463 14.7375 187.036 15.3113 187.036 16.0191C187.036 16.7268 186.463 17.3006 185.756 17.3006Z" fill="white"/>
<path d="M104.365 145.773C105.128 145.773 105.86 145.469 106.4 144.928C106.939 144.387 107.243 143.655 107.244 142.89V86.5029C107.244 85.7382 106.94 85.0048 106.401 84.464C105.861 83.9233 105.129 83.6195 104.365 83.6195C103.602 83.6195 102.87 83.9233 102.33 84.464C101.79 85.0048 101.487 85.7382 101.487 86.5029V142.89C101.488 143.655 101.792 144.387 102.331 144.928C102.871 145.469 103.602 145.773 104.365 145.773Z" fill="#3F3D56"/>
<path d="M317.357 104.124C318.12 104.123 318.852 103.819 319.391 103.278C319.931 102.738 320.235 102.005 320.235 101.24V88.4252C320.235 87.6605 319.932 86.9271 319.392 86.3863C318.853 85.8456 318.12 85.5418 317.357 85.5418C316.594 85.5418 315.862 85.8456 315.322 86.3863C314.782 86.9271 314.479 87.6605 314.479 88.4252V101.24C314.48 102.005 314.783 102.738 315.323 103.278C315.862 103.819 316.594 104.123 317.357 104.124Z" fill="#3F3D56"/>
<path d="M317.357 127.832C318.12 127.831 318.852 127.527 319.391 126.987C319.931 126.446 320.235 125.713 320.235 124.949V112.133C320.235 111.369 319.932 110.635 319.392 110.095C318.853 109.554 318.12 109.25 317.357 109.25C316.594 109.25 315.862 109.554 315.322 110.095C314.782 110.635 314.479 111.369 314.479 112.133V124.949C314.48 125.713 314.783 126.446 315.323 126.987C315.862 127.527 316.594 127.831 317.357 127.832Z" fill="#3F3D56"/>
<path d="M53.7378 437H480.36C480.53 437 480.693 436.932 480.813 436.812C480.933 436.692 481 436.529 481 436.359C481 436.189 480.933 436.026 480.813 435.906C480.693 435.786 480.53 435.718 480.36 435.718H53.7378C53.5681 435.718 53.4055 435.786 53.2855 435.906C53.1656 436.026 53.0982 436.189 53.0982 436.359C53.0982 436.529 53.1656 436.692 53.2855 436.812C53.4055 436.932 53.5681 437 53.7378 437Z" fill="#3F3D56"/>
<path d="M440.929 429.246H433.087L429.357 398.946H440.93L440.929 429.246Z" fill="#FFB6B6"/>
<path d="M442.929 426.681L427.486 426.681H427.486C424.876 426.681 422.373 427.72 420.527 429.569C418.681 431.417 417.644 433.925 417.644 436.54V436.86L442.929 436.861L442.929 426.681Z" fill="#2F2E41"/>
<path d="M368.653 429.246H360.811L357.081 398.946H368.654L368.653 429.246Z" fill="#FFB6B6"/>
<path d="M370.653 426.681L355.21 426.681H355.209C352.599 426.681 350.096 427.72 348.251 429.569C346.405 431.417 345.368 433.925 345.368 436.54V436.86L370.652 436.861L370.653 426.681Z" fill="#2F2E41"/>
<path d="M378.121 185.821L373.004 218.5L421.614 219.141L415.218 187.743L378.121 185.821Z" fill="#FFB6B6"/>
<path d="M371.084 210.17L358.932 251.82L357.013 422.969H370.125L401.466 285.46L430.249 419.379H443.041L434.086 268.8C434.086 268.8 438.564 231.636 423.213 220.743V211.184L371.084 210.17Z" fill="#2F2E41"/>
<path d="M440.825 242.715C439.471 242.346 438.215 241.684 437.145 240.775C436.074 239.867 435.216 238.734 434.63 237.457C434.044 236.18 433.744 234.79 433.752 233.385C433.76 231.98 434.076 230.593 434.677 229.323L413.997 161.781L429.208 158.761L448.121 224.966C450.184 226.119 451.753 227.989 452.531 230.223C453.309 232.457 453.242 234.9 452.342 237.087C451.443 239.275 449.774 241.057 447.651 242.094C445.528 243.131 443.099 243.352 440.825 242.715Z" fill="#FFB6B6"/>
<path d="M383.128 118.425C374.56 109.842 374.56 95.9258 383.128 87.3427C391.695 78.7597 405.586 78.7597 414.154 87.3427C422.722 95.9258 422.722 109.842 414.154 118.425C405.586 127.008 391.695 127.008 383.128 118.425Z" fill="#FFB6B6"/>
<path d="M414.328 203.442C415.189 203.27 415.97 202.821 416.552 202.161C417.134 201.502 417.484 200.67 417.548 199.793C418.03 193.175 420.416 181.674 424.64 165.607C425.591 161.976 425.766 158.184 425.152 154.481C424.538 150.777 423.149 147.245 421.077 144.117C419.005 140.989 416.296 138.335 413.128 136.33C409.96 134.324 406.404 133.013 402.694 132.48C399.178 131.971 395.595 132.172 392.157 133.074C388.72 133.976 385.498 135.559 382.682 137.73C379.866 139.901 377.513 142.616 375.763 145.714C374.013 148.812 372.9 152.23 372.492 155.766C370.402 174.202 374.344 192.722 376.136 199.829C376.353 200.684 376.844 201.445 377.534 201.994C378.224 202.543 379.074 202.851 379.955 202.87L413.464 203.518C413.754 203.524 414.043 203.498 414.328 203.442Z" fill="#E4E4E4"/>
<path d="M319.934 144.541C320.135 144.993 320.3 145.46 320.428 145.939L362.371 160.217L370.476 153.124L382.76 163.978L369.63 177.932C368.57 179.059 367.173 179.811 365.649 180.075C364.125 180.339 362.557 180.101 361.18 179.396L316.298 156.43C314.675 157.427 312.787 157.906 310.886 157.802C308.985 157.699 307.16 157.018 305.655 155.85C304.149 154.682 303.034 153.082 302.458 151.264C301.882 149.446 301.873 147.495 302.43 145.672C302.988 143.848 304.087 142.237 305.58 141.054C307.074 139.871 308.892 139.172 310.792 139.049C312.692 138.926 314.584 139.386 316.217 140.367C317.85 141.348 319.147 142.804 319.934 144.541H319.934Z" fill="#FFB6B6"/>
<path d="M363.834 160.997L379.124 174.376C379.559 174.757 380.071 175.039 380.624 175.203C381.178 175.368 381.761 175.411 382.333 175.33C382.905 175.249 383.452 175.045 383.938 174.732C384.425 174.42 384.838 174.006 385.15 173.519L396.087 156.458C398.018 154.217 398.983 151.301 398.772 148.348C398.56 145.395 397.187 142.646 394.956 140.705C392.724 138.764 389.816 137.789 386.867 137.993C383.919 138.197 381.172 139.564 379.228 141.794L363.87 154.9C363.431 155.275 363.077 155.741 362.833 156.266C362.59 156.79 362.462 157.361 362.458 157.94C362.455 158.519 362.576 159.091 362.813 159.619C363.05 160.146 363.399 160.617 363.834 160.997V160.997Z" fill="#E4E4E4"/>
<path d="M416.412 179.075L435.308 171.638C435.845 171.427 436.331 171.102 436.732 170.685C437.133 170.268 437.439 169.77 437.631 169.224C437.822 168.678 437.893 168.097 437.84 167.521C437.787 166.945 437.611 166.387 437.323 165.885L427.242 148.303C426.146 145.553 424.007 143.35 421.292 142.178C418.577 141.006 415.51 140.96 412.761 142.051C410.013 143.142 407.809 145.28 406.633 147.997C405.456 150.714 405.403 153.787 406.486 156.543L411.026 176.235C411.157 176.798 411.407 177.327 411.759 177.786C412.112 178.244 412.559 178.621 413.07 178.89C413.581 179.16 414.144 179.316 414.721 179.348C415.298 179.38 415.875 179.287 416.412 179.075V179.075Z" fill="#E4E4E4"/>
<path d="M388.497 97.9606C383.716 102.851 377.225 108.192 370.777 105.275C366.542 103.36 364.402 98.6816 365.054 94.0736C366.225 85.787 372.982 80.8995 379.572 76.873C388.138 71.6387 397.662 66.9364 407.682 67.477C417.701 68.0177 427.961 75.5947 428.16 85.6447C428.32 93.7267 422.255 101.683 424.854 109.335C427.469 117.037 437.173 119.438 445.293 119.295C453.413 119.152 462.276 117.864 469.026 122.386C477.638 128.156 478.388 141.375 473.128 150.316C467.869 159.258 458.344 164.729 448.918 169.034C436.429 174.738 422.58 179.183 409.116 176.506C395.653 173.828 383.226 161.893 384.26 148.181C384.697 142.389 387.366 137.038 389.939 131.833C392.512 126.628 395.088 121.208 395.314 115.404C395.502 110.568 393.625 105.368 389.883 102.511C389.207 102.016 388.706 101.318 388.45 100.518C388.195 99.7192 388.199 98.8593 388.462 98.0623L388.497 97.9606Z" fill="#2F2E41"/>
<path d="M120.161 192.154C127.08 196.311 139.408 201.52 152.006 196.167L160.149 192.707L143.83 174.381C156.853 159.997 164.057 141.267 164.037 121.849C164.017 102.43 156.775 83.7155 143.723 69.3582C130.672 55.0009 112.748 46.0313 93.4501 44.2C74.1526 42.3688 54.8664 47.8075 39.356 59.4544C23.8456 71.1013 13.2242 88.1206 9.56516 107.19C5.90608 126.26 9.47188 146.011 19.5665 162.589C29.6612 179.167 45.5602 191.381 64.1602 196.847C82.7602 202.314 102.726 200.641 120.161 192.154Z" fill="white"/>
<path d="M120.119 193.142C126.767 197.053 139.433 202.457 152.345 196.969L161.606 193.034L144.998 174.383C155.331 162.738 161.995 148.291 164.148 132.86C166.302 117.429 163.849 101.704 157.099 87.667C150.35 73.6297 139.605 61.907 126.217 53.9754C112.83 46.0438 97.3998 42.2579 81.8691 43.0945C66.3384 43.9311 51.4021 49.3529 38.9412 58.6769C26.4803 68.0009 17.0521 80.8103 11.8439 95.4918C6.6357 110.173 5.88045 126.07 9.67328 141.181C13.4661 156.292 21.6374 169.94 33.1581 180.408C44.7282 190.984 59.1934 197.848 74.6914 200.118C90.1894 202.387 106.011 199.958 120.119 193.142ZM29.015 70.0619C35.8125 62.5463 44.0216 56.446 53.1732 52.1095C62.3247 47.7731 72.2395 45.2855 82.351 44.7888C92.4625 44.2921 102.573 45.796 112.104 49.2147C121.635 52.6334 130.4 57.8999 137.899 64.7132C145.398 71.5266 151.483 79.7533 155.808 88.9233C160.132 98.0934 162.61 108.027 163.101 118.157C163.592 128.287 162.086 138.415 158.669 147.961C155.252 157.508 149.991 166.286 143.186 173.795L142.66 174.376L158.692 192.38L151.666 195.365C139.195 200.665 126.855 195.16 120.608 191.407L120.205 191.164L119.781 191.37C103.679 199.208 85.3567 201.186 67.9582 196.964C50.5598 192.742 35.1711 182.585 24.4342 168.235C13.6972 153.885 8.28181 136.238 9.11771 118.324C9.95361 100.41 16.9886 83.3458 29.015 70.0618V70.0619Z" fill="#C77935"/>
<path opacity="0.1" d="M20.3055 121.442C20.3066 103.486 27.0186 86.1812 39.1197 72.9354C51.2208 59.6895 67.8339 51.4626 85.6875 49.8748C83.5984 49.6915 81.4852 49.5923 79.3486 49.5923C60.3334 49.6021 42.1004 57.1763 28.6581 70.6497C15.2159 84.1231 7.66466 102.393 7.66466 121.442C7.66466 140.491 15.2159 158.761 28.6581 172.234C42.1004 185.708 60.3334 193.282 79.3486 193.292C81.4819 193.292 83.5915 193.191 85.6775 193.008C67.8259 191.418 51.2153 183.19 39.1163 169.945C27.0173 156.7 20.3066 139.396 20.3055 121.442Z" fill="black"/>
<path d="M75.9799 107.114H127.229V111.882H75.9799V107.114Z" fill="#C77935"/>
<path d="M37.9064 123.607H127.229V128.375H37.9064V123.607Z" fill="#C77935"/>
<path d="M37.9938 140.1H127.229V144.868H37.9938V140.1Z" fill="#C77935"/>
<path d="M281.637 313.664C288.919 307.046 294.08 298.415 296.466 288.859C298.852 279.304 298.356 269.254 295.04 259.982C291.725 250.709 285.739 242.629 277.84 236.764C269.941 230.9 260.483 227.513 250.663 227.033C240.842 226.553 231.101 229.001 222.669 234.067C214.238 239.134 207.495 246.592 203.294 255.497C199.093 264.402 197.623 274.356 199.069 284.098C200.515 293.841 204.812 302.935 211.417 310.231L201.008 321.92L206.203 324.128C214.238 327.542 222.101 324.22 226.515 321.568C235.441 325.913 245.46 327.482 255.284 326.073C265.108 324.664 274.286 320.342 281.637 313.664Z" fill="white"/>
<path d="M248.304 327.175C260.775 327.165 272.794 322.494 282.009 314.075C289.358 307.399 294.57 298.693 296.989 289.055C299.408 279.416 298.926 269.277 295.604 259.912C292.282 250.548 286.268 242.377 278.32 236.43C270.372 230.482 260.845 227.024 250.939 226.491C241.033 225.957 231.19 228.372 222.651 233.431C214.113 238.49 207.259 245.967 202.954 254.921C198.648 263.875 197.084 273.904 198.458 283.747C199.831 293.59 204.081 302.805 210.673 310.232L200.079 322.129L205.986 324.639C214.222 328.139 222.301 324.692 226.542 322.198C233.333 325.468 240.77 327.168 248.304 327.175ZM281.264 313.252C274.01 319.883 264.933 324.175 255.212 325.569C245.491 326.963 235.576 325.395 226.757 321.068L226.487 320.936L226.229 321.091C222.245 323.485 214.374 326.996 206.419 323.616L201.938 321.712L212.163 310.228L211.828 309.858C205.297 302.643 201.047 293.65 199.618 284.017C198.188 274.383 199.642 264.54 203.796 255.734C207.95 246.928 214.617 239.554 222.954 234.544C231.292 229.534 240.925 227.113 250.636 227.588C260.347 228.063 269.699 231.412 277.51 237.211C285.321 243.01 291.239 251 294.518 260.169C297.796 269.339 298.287 279.276 295.928 288.724C293.568 298.173 288.465 306.709 281.264 313.252Z" fill="#C77935"/>
<path opacity="0.1" d="M290.207 276.464C290.206 265.011 285.925 253.973 278.207 245.524C270.488 237.076 259.891 231.828 248.503 230.815C249.836 230.698 251.184 230.635 252.547 230.635C264.675 230.641 276.305 235.473 284.879 244.067C293.453 252.661 298.27 264.314 298.27 276.464C298.27 288.615 293.453 300.268 284.879 308.862C276.305 317.456 264.675 322.287 252.547 322.293C251.186 322.293 249.84 322.229 248.51 322.113C259.896 321.098 270.491 315.85 278.209 307.402C285.926 298.953 290.206 287.916 290.207 276.464Z" fill="black"/>
<path d="M222.007 267.325H254.696V270.366H222.007V267.325Z" fill="#C77935"/>
<path d="M222.007 277.845H278.98V280.886H222.007V277.845Z" fill="#C77935"/>
<path d="M222.007 288.365H278.925V291.406H222.007V288.365Z" fill="#C77935"/>
<path d="M184.632 333.282C180.746 333.282 177.596 330.127 177.596 326.234C177.596 322.341 180.746 319.186 184.632 319.186C188.518 319.186 191.668 322.341 191.668 326.234C191.668 330.127 188.518 333.282 184.632 333.282Z" fill="#C77935"/>
<path d="M174.398 203.208C169.806 203.208 166.083 199.478 166.083 194.878C166.083 190.277 169.806 186.548 174.398 186.548C178.99 186.548 182.713 190.277 182.713 194.878C182.713 199.478 178.99 203.208 174.398 203.208Z" fill="#C77935"/>
</g>
<defs>
<clipPath id="clip0_76_440">
<rect width="481" height="437" fill="white" transform="matrix(-1 0 0 1 481 0)"/>
</clipPath>
</defs>
</svg>
