<svg xmlns="http://www.w3.org/2000/svg" width="14" height="14" fill="none"><path fill="#000" d="M8.952 1.3c0 .713-.925 1.29-2.066 1.29-1.14 0-2.066-.577-2.066-1.29 0-.71.926-1.29 2.066-1.29 1.141 0 2.066.58 2.066 1.29Zm-2.41 8.17v3.44c0 .476-.615.86-1.377.86s-1.378-.384-1.378-.86V6.914l-1.23 1.28c-.392.405-1.24.537-1.89.293-.65-.245-.86-.774-.47-1.18L2.708 4.7c.75-.776 2.092-1.252 3.542-1.252h1.279c1.45 0 2.793.476 3.542 1.252l2.51 2.607c.39.406.18.935-.47 1.18-.65.244-1.498.112-1.89-.293l-1.235-1.28v5.996c0 .476-.615.86-1.377.86s-1.377-.384-1.377-.86V9.47h-.689Z"/></svg>